<?xml version="1.0" standalone="yes"?>

<svg version="1.1" viewBox="0.0 0.0 960.2257217847769 383.68503937007875" fill="none" stroke="none" stroke-linecap="square" stroke-miterlimit="10" xmlns="http://www.w3.org/2000/svg" xmlns:xlink="http://www.w3.org/1999/xlink"><clipPath id="p.0"><path d="m0 0l960.2257 0l0 383.68503l-960.2257 0l0 -383.68503z" clip-rule="nonzero"></path></clipPath><g clip-path="url(#p.0)"><path fill="#000000" fill-opacity="0.0" d="m0 0l960.2257 0l0 383.68503l-960.2257 0z" fill-rule="nonzero"></path><path fill="#000000" fill-opacity="0.0" d="m133.68373 62.300423c4.090988 1.6994743 17.422134 0.56736755 24.545929 10.196854c7.1237946 9.629478 13.874008 28.919067 18.196854 47.580048c4.32283 18.660988 4.9711304 27.00132 7.740158 64.385826c2.7690277 37.38452 5.0034943 128.2642 8.874008 159.92125c3.870514 31.657043 8.936569 27.629059 14.349091 30.020996c5.412506 2.3919678 12.964996 -5.2532654 18.125977 -15.669281c5.16098 -10.416016 9.692917 -27.945312 12.83989 -46.826782c3.146988 -18.88144 5.16098 -41.916443 6.0420074 -66.46193c0.88101196 -24.545486 0.3770752 -58.531494 -0.75590515 -80.81102c-1.1329956 -22.279526 -5.4125214 -40.40464 -6.0420074 -52.866142c-0.6294708 -12.46151 0.5026245 -16.364395 2.265091 -21.902893c1.7624817 -5.5384903 8.687241 -6.356079 8.309723 -11.328079c-0.3775177 -4.9720078 -9.56781 -13.657921 -10.574814 -18.503937c-1.0069885 -4.8460197 1.6692963 -7.3941383 4.5328217 -10.572178c2.8635101 -3.1780434 7.8022614 -6.293091 12.648285 -8.496063c4.8460236 -2.2029762 10.60585 -3.934822 16.42781 -4.7217865c5.8219604 -0.7869644 12.745422 -1.0384941 18.503937 0c5.758545 1.0384941 11.515747 3.3989487 16.047272 6.2309723c4.531494 2.8320198 7.994751 6.229656 11.141724 10.761154c3.1469727 4.531494 6.41864 11.109364 7.740143 16.427822c1.3215332 5.3184586 1.4475098 10.982941 0.18899536 15.482941c-1.2585449 4.5 -4.561676 8.33902 -7.7401733 11.517059c-3.1784668 3.1780396 -6.8306885 5.5371857 -11.330688 7.551178c-4.5 2.014 -8.9982605 2.8018417 -15.669312 4.532814c-6.6710205 1.7309647 -23.38144 4.2795258 -24.356964 5.853012c-0.9754944 1.573494 12.65094 1.5739288 18.503937 3.5879288c5.8530273 2.014 10.950134 3.3665771 16.614197 8.496063c5.664032 5.129486 13.656586 13.847336 17.370056 22.280838c3.713501 8.433517 3.9667664 19.25766 4.9107666 28.320206c0.94400024 9.062561 -0.58792114 19.604126 0.7532959 26.05513c1.3411865 6.451004 2.2904663 10.919937 7.2939453 12.650909c5.0035095 1.7309723 18.939209 -1.8875732 22.72705 -2.265091" fill-rule="nonzero"></path><path stroke="#ff4949" stroke-width="16.0" stroke-linejoin="round" stroke-linecap="butt" d="m133.68373 62.300423c4.090988 1.6994743 17.422134 0.56736755 24.545929 10.196854c7.1237946 9.629478 13.874008 28.919067 18.196854 47.580048c4.32283 18.660988 4.9711304 27.00132 7.740158 64.385826c2.7690277 37.38452 5.0034943 128.2642 8.874008 159.92125c3.870514 31.657043 8.936569 27.629059 14.349091 30.020996c5.412506 2.3919678 12.964996 -5.2532654 18.125977 -15.669281c5.16098 -10.416016 9.692917 -27.945312 12.83989 -46.826782c3.146988 -18.88144 5.16098 -41.916443 6.0420074 -66.46193c0.88101196 -24.545486 0.3770752 -58.531494 -0.75590515 -80.81102c-1.1329956 -22.279526 -5.4125214 -40.40464 -6.0420074 -52.866142c-0.6294708 -12.46151 0.5026245 -16.364395 2.265091 -21.902893c1.7624817 -5.5384903 8.687241 -6.356079 8.309723 -11.328079c-0.3775177 -4.9720078 -9.56781 -13.657921 -10.574814 -18.503937c-1.0069885 -4.8460197 1.6692963 -7.3941383 4.5328217 -10.572178c2.8635101 -3.1780434 7.8022614 -6.293091 12.648285 -8.496063c4.8460236 -2.2029762 10.60585 -3.934822 16.42781 -4.7217865c5.8219604 -0.7869644 12.745422 -1.0384941 18.503937 0c5.758545 1.0384941 11.515747 3.3989487 16.047272 6.2309723c4.531494 2.8320198 7.994751 6.229656 11.141724 10.761154c3.1469727 4.531494 6.41864 11.109364 7.740143 16.427822c1.3215332 5.3184586 1.4475098 10.982941 0.18899536 15.482941c-1.2585449 4.5 -4.561676 8.33902 -7.7401733 11.517059c-3.1784668 3.1780396 -6.8306885 5.5371857 -11.330688 7.551178c-4.5 2.014 -8.9982605 2.8018417 -15.669312 4.532814c-6.6710205 1.7309647 -23.38144 4.2795258 -24.356964 5.853012c-0.9754944 1.573494 12.65094 1.5739288 18.503937 3.5879288c5.8530273 2.014 10.950134 3.3665771 16.614197 8.496063c5.664032 5.129486 13.656586 13.847336 17.370056 22.280838c3.713501 8.433517 3.9667664 19.25766 4.9107666 28.320206c0.94400024 9.062561 -0.58792114 19.604126 0.7532959 26.05513c1.3411865 6.451004 2.2904663 10.919937 7.2939453 12.650909c5.0035095 1.7309723 18.939209 -1.8875732 22.72705 -2.265091" fill-rule="nonzero"></path><path fill="#ffffff" d="m803.2139 320.21652l132.16266 0l8.312378 8.312378l0 10.178711l-2.6427612 2.6427917l-143.50183 0l-2.6428223 -2.6427917l0 -10.178711z" fill-rule="nonzero"></path><path fill="#ffffff" d="m816.8552 303.79053l104.87482 0l6.838196 6.838196l0 8.373535l-2.1740723 2.1740723l-114.203 0l-2.1740723 -2.1740723l0 -8.373535z" fill-rule="nonzero"></path><path fill="#ffffff" d="m9.44864 98.74016l0 -94.01575l-4.724409 -4.7244096l-4.7244096 0l0 0l0 103.46457l0 0l4.7244096 0z" fill-rule="nonzero"></path><path fill="#ffffff" d="m53.856556 90.571014l9.247631 -72.27273l12.911499 -9.985538l44.341995 5.658969l21.89029 28.30458l-5.7532806 44.963463l-28.313873 21.897484l-44.342 -5.6589737z" fill-rule="nonzero"></path><path fill="#ffffff" d="m17.099138 66.045456l0 0l0 0c0.16603088 -1.300972 0.84207153 -2.4827042 1.8794003 -3.2852287c1.0373287 -0.80252457 2.3509731 -1.1601028 3.651945 -0.99407196l34.337257 4.3821526c4.5776367E-5 7.6293945E-6 7.6293945E-5 4.5776367E-5 7.247925E-5 9.1552734E-5l-1.2521172 9.8105545l0 0c-3.8146973E-6 4.5776367E-5 -4.5776367E-5 7.6293945E-5 -9.1552734E-5 6.866455E-5l-34.337166 -4.382225l0 0c-2.709135 -0.34574127 -4.625042 -2.8222046 -4.2793007 -5.5313416z" fill-rule="nonzero"></path><path fill="#ffffff" d="m21.341566 32.803047l0 0l0 0c0.16603279 -1.3009739 0.84207344 -2.482706 1.8794003 -3.2852306c1.0373287 -0.80252457 2.3509731 -1.1601028 3.651945 -0.99407196l34.337257 4.3821545c4.5776367E-5 7.6293945E-6 7.6293945E-5 4.5776367E-5 7.247925E-5 9.1552734E-5l-1.2521172 9.8105545l0 0c-3.8146973E-6 4.5776367E-5 -4.5776367E-5 7.6293945E-5 -9.1552734E-5 7.247925E-5l-34.337166 -4.382225l0 0c-2.7091331 -0.3457451 -4.625042 -2.8222122 -4.2793007 -5.5313454z" fill-rule="nonzero"></path><path fill="#ffffff" d="m829.67725 165.1485l-0.36773682 -3.4656982l-5.7911987 -4.679962l-5.235779 0.5558319l0 0l1.4786987 13.937256l0 0l5.235718 -0.5558319z" fill-rule="nonzero"></path><path fill="#ffffff" d="m375.8553 216.65439l-1.0675659 -10.062485l7.723114 -9.556976l8.63974 -0.91719055l0 0l2.9008179 27.342087l0 0l-8.63974 0.9171753z" fill-rule="nonzero"></path><path fill="#ffffff" d="m340.93103 225.81848l-2.2125244 -20.854385l11.872589 -14.691788l6.119568 -0.64964294l21.459625 17.341766l0.914032 8.615219l-17.342896 21.461014l-6.1195374 0.64964294z" fill-rule="nonzero"></path><path fill="#ffffff" d="m880.4829 146.60843l2.3753662 22.502731l-15.849182 19.602097l-10.27533 1.0908203l-30.950623 -25.025024l-0.20593262 -1.9507294l25.039795 -30.968903l10.275391 -1.0908356z" fill-rule="nonzero"></path><path fill="#ffffff" d="m817.7327 55.40007l59.91382 -6.3603935l14.362305 11.606373l5.1106567 48.170975l-9.863464 12.205627l-63.81494 6.7745285l-12.204834 -9.862869l-5.1106567 -48.170967z" fill-rule="nonzero"></path><path fill="#ffffff" d="m838.5958 133.88768l35.124268 -3.7287598l4.1104126 -5.086441l-0.487854 -4.598297l0 0l-44.3208 4.705055l0 0l0.487854 4.5983047z" fill-rule="nonzero"></path><path fill="#ffffff" d="m900.585 265.2684l-59.91382 6.360382l-14.362305 -11.606384l-5.1106567 -48.17096l9.863464 -12.205627l63.81494 -6.774536l12.204834 9.862869l5.1106567 48.170975z" fill-rule="nonzero"></path><path fill="#ffffff" d="m879.72095 186.78113l-35.124207 3.7287598l-4.1104126 5.086441l0.487854 4.598297l0 0l44.32074 -4.705063l0 0l-0.487854 -4.598297z" fill-rule="nonzero"></path><path fill="#ffffff" d="m384.7892 195.46036l436.30777 -38.309097l1.4995117 14.133438l-434.62735 54.14859z" fill-rule="nonzero"></path><path stroke="#ffffff" stroke-width="1.0" stroke-linejoin="round" stroke-linecap="butt" d="m384.7892 195.46036l436.30777 -38.309097l1.4995117 14.133438l-434.62735 54.14859z" fill-rule="nonzero"></path></g></svg>

